<?xml version="1.0" encoding="UTF-8" standalone="no"?>
<!--
*************Map created by Simplemaps.com********************
*************Attribution is highly appreciated!***************
*************http://simplemaps.com****************************

The MIT License (MIT)

Copyright (c) 2015 Pareto Softare, LLC DBA Simplemaps.com

Permission is hereby granted, free of charge, to any person obtaining a copy
of this software and associated documentation files (the "Software"), to deal
in the Software without restriction, including without limitation the rights
to use, copy, modify, merge, publish, distribute, sublicense, and/or sell
copies of the Software, and to permit persons to whom the Software is
furnished to do so, subject to the following conditions:

The above copyright notice and this permission notice shall be included in
all copies or substantial portions of the Software.

THE SOFTWARE IS PROVIDED "AS IS", WITHOUT WARRANTY OF ANY KIND, EXPRESS OR
IMPLIED, INCLUDING BUT NOT LIMITED TO THE WARRANTIES OF MERCHANTABILITY,
FITNESS FOR A PARTICULAR PURPOSE AND NONINFRINGEMENT. IN NO EVENT SHALL THE
AUTHORS OR COPYRIGHT HOLDERS BE LIABLE FOR ANY CLAIM, DAMAGES OR OTHER
LIABILITY, WHETHER IN AN ACTION OF CONTRACT, TORT OR OTHERWISE, ARISING FROM,
OUT OF OR IN CONNECTION WITH THE SOFTWARE OR THE USE OR OTHER DEALINGS IN
THE SOFTWARE.

-->

<svg
   enable_background="new 0 0 2000 1000"
   height="1000px"
   style="stroke-linejoin: round; stroke:#000; fill: none;"
   version="1.1"
   viewBox="0 0 2000 1000"
   width="2000px">
  <rect x="0" y="0" width="2000" height="1000" stroke="none" fill="aqua"/>
 <path
     data-name="United States"
     d="m 530.7,450.7 -1.6,0 -1.3,2.4 -10.1,0 -16.8,0 -16.7,0 -14.8,0 -14.7,0 -14.5,0 -15,0 -4.8,0 -14.6,0 -13.9,0 -1.6,5.1 -2.4,5.1 -2.3,1.6 1.1,-5.9 -5.8,-2.1 -1.4,1.2 -0.4,2.9 -1.8,5.4 -4.2,8.3 -4,5.6 -4,5.6 -5.4,5.8 -1.1,4.7 -2.8,5.3 -3.9,5.2 1,3.4 -1.9,5.2 1.5,5.4 1.3,2.2 -0.8,1.5 0.4,9 2.5,6.5 -0.8,3.5 1,1 4.6,0.7 1.3,1.7 2.8,0.3 -0.1,1.9 2.2,0.7 2.1,3.7 -0.3,3.2 6.3,-0.5 7,-0.7 -1,1.3 7.1,3.1 10.7,4.4 10.7,0 4.3,0 0.8,-2.6 9.3,0 1.3,2.2 2.1,2 2.4,2.8 0.8,3.3 0.4,3.5 2.2,1.9 4,1.9 4.8,-5 4.4,-0.1 3.1,2.5 1.6,4.4 1,3.7 2.4,3.6 0.2,4.5 0.8,3 3.9,2 3.6,1.4 2.1,-0.2 -0.6,-2.2 0.4,-3.1 1,-4.4 1.9,-2.8 3.7,-3.1 6,-2.7 6.1,-4.7 4.9,-1.5 3.5,-0.4 3.5,1.4 4.9,-0.8 3.3,3.4 3.8,0.2 2.4,-1.2 1.7,0.9 1.3,-0.8 -0.9,-1.3 0.7,-2.5 -0.5,-1.7 2.4,-1 4.2,-0.4 4.7,0.7 6.2,-0.8 3,1.5 2,3 0.9,0.3 6.1,-2.9 1.9,1 3,5.3 0.8,3.5 -2,4.2 0.4,2.5 1.6,4.9 2,5.5 1.8,1.4 0.4,2.8 2.6,0.8 1.7,-0.8 2,-3.9 0.7,-2.5 0.9,-4.3 -1.2,-7.4 0.5,-2.7 -1.5,-4.5 -0.7,-5.4 0.1,-4.4 1.8,-4.5 3.5,-3.8 3.7,-3 6.9,-4.1 1.3,-2.2 3.3,-2.3 2.8,-0.4 4.4,-3.8 6,-1.9 4.6,-4.8 0.9,-6.5 0.1,-2.2 -1.4,-0.4 1.5,-6.2 -3,-2.1 3.2,1 0,-4.1 1.9,-2.7 -1,5.3 2,2.5 -2.9,4.4 0.4,0.2 4.4,-5.1 2.4,-2.5 0.6,-2.5 -0.9,-1.1 -0.1,-3.5 1.2,1.6 1.1,0.4 -0.1,1.6 5.2,-4.9 2.5,-4.5 -1.4,-0.3 2.1,-1.8 -0.4,0.8 3.3,0 7.8,-1.9 -1.1,-1.2 -7.9,1.2 4.8,-1.8 3.1,-0.3 2.4,-0.3 4.1,-1.1 2.4,0.1 3.8,-1 1,-1.7 -1.1,-1.4 -0.2,2.2 -2.1,-0.1 -0.6,-3.3 1.1,-3.3 1.4,-1.3 3.9,-3.7 5.9,-1.8 6,-2.1 6.3,-3 -0.2,-2 -2.1,-3.5 2.8,-8.5 -1.5,-1.8 -3.7,1.1 -1.1,-1.7 -5.5,4.7 -3.2,4.9 -2.7,2.8 -2.5,0.9 -1.7,0.3 -1,1.6 -9.3,0 -7.7,0 -2.7,1.2 -6.7,4.2 0.2,0.9 -0.6,2.4 -4.6,2 -3.9,-0.5 -4,-0.2 -2.6,0.7 -0.3,1.8 0,0 -0.1,0.6 -5.8,3.7 -4.5,1.8 -2.9,0.8 -3.7,1.7 -4,0.9 -2.5,-0.3 -2.7,-1.3 2.7,-2.4 0,0 2,-2.2 3.7,-3.4 0,0 0,0 0.7,-2.5 0.5,-3.5 -1.6,-0.7 -4.3,2.8 -0.9,-0.1 0.3,-1.5 3.8,-2.5 1.6,-2.8 0.7,-2.8 -2.7,-2.4 -3.7,-1.3 -1.7,2.4 -1.4,0.6 -2.2,3.1 0.4,-2.1 -2.6,1.5 -2.1,2 -2.6,3.1 -1.3,2.6 0.1,3.8 -1.8,4 -3.3,3 -1.4,0.9 -1.6,0.7 -1.8,0 -0.3,-0.4 -0.1,-3.3 0.7,-1.6 0.7,-1.5 0.6,-3 2.5,-3.5 2.9,-4.3 4.6,-4.7 -0.7,0 -5.4,4 -0.4,-0.7 2.9,-2.3 4.7,-4 3.7,-0.5 4.4,-1.3 3.7,0.7 0.1,0 4.7,-0.5 -1.5,-2.5 0,0 -1.2,-0.2 0,0 0,0 -1.4,-0.3 -0.4,-1.7 -5.1,0.5 -5,1.4 -2.5,-2.3 -2.5,-0.8 3.1,-3.3 -5.3,2 -4.9,2.1 -4.6,1.5 -2.1,-2.1 -5.5,1.3 0.4,-0.9 4.6,-2.6 4.7,-2.5 5.9,-2.1 0,0 0,0 -5.3,-1.6 -4.4,0.8 -3.8,-1.9 -4.6,-1 -3.2,-0.4 -1,-1 0.8,-3.4 z"
     style="fill-rule:evenodd" />   
   <path
     data-name="United States Simplified"
     d="m 900,450 -10,0 -10,20 -10,0 -20,0 -16.7,0 -14.8,0 -14.7,0 -14.5,0 -15,0 -4.8,0 -14.6,0 -13.9,0 -1.6,5.1 -2.4,5.1 -2.3,1.6 1.1,-5.9 -5.8,-2.1 -1.4,1.2 -0.4,2.9 -1.8,5.4 -4.2,8.3 -4,5.6 -4,5.6 -5.4,5.8 -1.1,4.7 -2.8,5.3 -3.9,5.2 1,3.4 -1.9,5.2 1.5,5.4 1.3,2.2 -0.8,1.5 0.4,9 2.5,6.5 -0.8,3.5 1,1 4.6,0.7 1.3,1.7 2.8,0.3 -0.1,1.9 2.2,0.7 2.1,3.7 -0.3,3.2 7,-0.7 7.1,3.1 10.7,0 4.3,0 9.3,0 2.1,2 0.8,3.3 2.2,1.9 4.8,-5 4.4,-0.1 3.1,2.5 1.6,4.4 1,3.7 2.4,3.6 0.2,4.5 0.8,3 3.9,2 3.6,1.4 2.1,-0.2 -0.6,-2.2 0.4,-3.1 1,-4.4 1.9,-2.8 3.7,-3.1 6,-2.7 6.1,-4.7 4.9,-1.5 3.5,-0.4 3.5,1.4 4.9,-0.8 3.3,3.4 3.8,0.2 2.4,-1.2 1.7,0.9 1.3,-0.8 0.7,-2.5 -0.5,-1.7 2.4,-1 4.2,-0.4 4.7,0.7 6.2,-0.8 3,1.5 2,3 0.9,0.3 6.1,-2.9 1.9,1 3,5.3 0.8,3.5 -2,4.2 1.6,4.9 2,5.5 1.8,1.4 0.4,2.8 2.6,0.8 1.7,-0.8 2,-3.9 0.7,-2.5 0.9,-4.3 -1.2,-7.4 0.5,-2.7 -1.5,-4.5 -0.7,-5.4 0.1,-4.4 1.8,-4.5 3.5,-3.8 3.7,-3 6.9,-4.1 1.3,-2.2z"
     style="fill-rule:evenodd" />
  <path data-name="Zquare" d="m 600,600 100,0 0,100 -100,0 z"/>
  <!--<path data-name="ZpentaConcave" d="m 1000,300 100,0 -50,50 0,50 -100,0 z"/>-->
  <path data-name="ZhexaConcave" d="m 1300,300 100,0 -50,50 0,50 -100,0 -20,0 -130,50 z"/>
  <path class="ignore" stroke="red" stroke-width="40" d="m 0,20 100,0 m -80,-20 0,100 "/>
  <path class="ignore" transform="translate(2000, 0) rotate(90)" stroke="red" stroke-width="40" d="m 0,20 100,0 m -80,-20 0,100 "/>
  <path class="ignore" transform="translate(2000, 1000) rotate(180)" stroke="red" stroke-width="40" d="m 0,20 100,0 m -80,-20 0,100 "/>
  <path class="ignore" transform="translate(0, 1000) rotate(270)" stroke="red" stroke-width="40" d="m 0,20 100,0 m -80,-20 0,100 "/>
</svg>
