<svg id="Layer_1" data-name="Layer 1" xmlns="http://www.w3.org/2000/svg" xmlns:xlink="http://www.w3.org/1999/xlink" viewBox="0 0 200 200">
  <defs>
    <clipPath id="clip-path">
      <path d="M44.67,26.74v-.27c4,0,7.33,1.4,7.33,3.1l-4-1.42C48,27.37,46.5,26.74,44.67,26.74Z" style="fill: none"/>
    </clipPath>
    <clipPath id="clip-path-2">
      <path d="M11.06,28.15l-4,1.42c0-1.7,3.29-3.09,7.34-3.1v.27C12.56,26.74,11.06,27.37,11.06,28.15Z" style="fill: none"/>
    </clipPath>
    <clipPath id="clip-path-3">
      <path d="M48,122.9l4,1.43c0,1.71-3.29,3.09-7.33,3.09v-3.11C46.5,124.31,48,123.68,48,122.9Z" style="fill: none"/>
    </clipPath>
    <clipPath id="clip-path-4">
      <path d="M52,124.33v6.21c0,1.71-3.29,3.09-7.33,3.1v-6.22C48.71,127.42,52,126,52,124.33Z" style="fill: none"/>
    </clipPath>
    <clipPath id="clip-path-5">
      <path d="M14.4,127.42v6.22c-4.05,0-7.33-1.39-7.34-3.1v-6.21C7.07,126,10.35,127.42,14.4,127.42Z" style="fill: none"/>
    </clipPath>
    <clipPath id="clip-path-6">
      <path d="M14.4,124.31v3.11c-4.05,0-7.33-1.38-7.34-3.09l4-1.43C11.06,123.68,12.56,124.31,14.4,124.31Z" style="fill: none"/>
    </clipPath>
    <clipPath id="clip-path-7">
      <path d="M186.27,26.74v-.27c4,0,7.33,1.4,7.33,3.1l-4-1.42C189.6,27.37,188.1,26.74,186.27,26.74Z" style="fill: none"/>
    </clipPath>
    <clipPath id="clip-path-8">
      <path d="M152.67,28.15l-4,1.42c0-1.71,3.27-3.09,7.33-3.1v.27C154.16,26.74,152.67,27.37,152.67,28.15Z" style="fill: none"/>
    </clipPath>
    <clipPath id="clip-path-9">
      <path d="M189.6,122.9l4,1.43c0,1.71-3.29,3.09-7.33,3.09v-3.11C188.1,124.31,189.6,123.68,189.6,122.9Z" style="fill: none"/>
    </clipPath>
    <clipPath id="clip-path-10">
      <path d="M193.6,124.33v6.21c0,1.71-3.29,3.09-7.33,3.1v-6.22C190.31,127.42,193.6,126,193.6,124.33Z" style="fill: none"/>
    </clipPath>
    <clipPath id="clip-path-11">
      <path d="M156,127.42v6.22c-4.06,0-7.33-1.39-7.33-3.1v-6.21C148.67,126,151.94,127.42,156,127.42Z" style="fill: none"/>
    </clipPath>
    <clipPath id="clip-path-12">
      <path d="M156,124.31v3.11c-4.06,0-7.33-1.38-7.33-3.09l4-1.43C152.67,123.68,154.16,124.31,156,124.31Z" style="fill: none"/>
    </clipPath>
    <clipPath id="clip-path-13">
      <path d="M174.21,114.17l4,1.42c0,2.45-4.7,4.44-10.5,4.44v-3.12C171.29,116.91,174.21,115.68,174.21,114.17Z" style="fill: none"/>
    </clipPath>
    <clipPath id="clip-path-14">
      <path d="M178.21,115.59v6.22c0,2.44-4.7,4.43-10.5,4.43V120C173.51,120,178.2,118,178.21,115.59Z" style="fill: none"/>
    </clipPath>
    <clipPath id="clip-path-15">
      <path d="M36,120v6.21c-5.79,0-10.49-2-10.5-4.43v-6.22C25.54,118,30.24,120,36,120Z" style="fill: none"/>
    </clipPath>
    <clipPath id="clip-path-16">
      <path d="M36,116.91V120c-5.79,0-10.49-2-10.5-4.44l4-1.42C29.53,115.68,32.45,116.91,36,116.91Z" style="fill: none"/>
    </clipPath>
    <clipPath id="clip-path-17">
      <path d="M139.89,34.83v-.27c8.82,0,16,3,16,6.77l-4-1.43C151.89,37.11,146.49,34.83,139.89,34.83Z" style="fill: none"/>
    </clipPath>
    <clipPath id="clip-path-18">
      <path d="M53.39,39.9l-4,1.43c0-3.73,7.18-6.77,16-6.77v.27C58.79,34.83,53.39,37.11,53.39,39.9Z" style="fill: none"/>
    </clipPath>
    <clipPath id="clip-path-19">
      <path d="M151.89,89.6l4,1.42c0,3.73-7.18,6.76-16,6.77V94.67C146.49,94.67,151.89,92.39,151.89,89.6Z" style="fill: none"/>
    </clipPath>
    <clipPath id="clip-path-20">
      <path d="M155.89,91v6.22c0,3.73-7.18,6.76-16,6.76V97.79C148.71,97.78,155.89,94.75,155.89,91Z" style="fill: none"/>
    </clipPath>
    <clipPath id="clip-path-21">
      <path d="M65.38,97.79V104c-8.81,0-16-3-16-6.76V91C49.39,94.75,56.57,97.78,65.38,97.79Z" style="fill: none"/>
    </clipPath>
    <clipPath id="clip-path-22">
      <path d="M65.38,94.67v3.12c-8.81,0-16-3-16-6.77l4-1.42C53.39,92.39,58.79,94.67,65.38,94.67Z" style="fill: none"/>
    </clipPath>
    <clipPath id="clip-path-23">
      <path d="M131.11,79.63l4,1.43c0,3-5.83,5.49-13,5.49V83.44C127.06,83.44,131.11,81.73,131.11,79.63Z" style="fill: none"/>
    </clipPath>
    <clipPath id="clip-path-24">
      <path d="M135.11,81.06v6.21c0,3-5.83,5.49-13,5.5V86.55C129.28,86.55,135.1,84.09,135.11,81.06Z" style="fill: none"/>
    </clipPath>
    <clipPath id="clip-path-25">
      <path d="M84.71,86.55v6.22c-7.17,0-13-2.47-13-5.5V81.06C71.71,84.09,77.54,86.55,84.71,86.55Z" style="fill: none"/>
    </clipPath>
    <clipPath id="clip-path-26">
      <path d="M84.71,83.44v3.11c-7.17,0-13-2.46-13-5.49l4-1.43C75.71,81.73,79.76,83.44,84.71,83.44Z" style="fill: none"/>
    </clipPath>
    <clipPath id="clip-path-27">
      <path d="M125.88,56.94v6.21c0,5.25-10,9.5-22.47,9.5s-22.47-4.25-22.47-9.5V56.94c0,5.25,10.06,9.49,22.47,9.5S125.87,62.19,125.88,56.94Z" style="fill: none"/>
    </clipPath>
    <clipPath id="clip-path-28">
      <path d="M103.41,47.71v-.26c12.42,0,22.46,4.25,22.47,9.49s-10,9.5-22.47,9.5-22.47-4.25-22.47-9.5S91,47.45,103.41,47.45v.26c-10.2,0-18.47,3.5-18.47,7.81s8.27,7.8,18.47,7.8,18.47-3.49,18.47-7.8S113.61,47.71,103.41,47.71Z" style="fill: none"/>
    </clipPath>
    <clipPath id="clip-path-29">
      <path d="M108.85,162.26V162c3.46,0,6.25,1.18,6.25,2.64l-4-1.42C111.1,162.68,110.1,162.26,108.85,162.26Z" style="fill: none"/>
    </clipPath>
    <clipPath id="clip-path-30">
      <path d="M95.71,163.22l-4,1.43c0-1.47,2.82-2.66,6.3-2.66v.27C96.74,162.26,95.71,162.69,95.71,163.22Z" style="fill: none"/>
    </clipPath>
  </defs>
  <title>app</title>
  <g style="isolation: isolate">
    <rect x="14.4" y="26.47" width="30.27" height="0.27" style="fill: #353029"/>
    <g style="isolation: isolate">
      <g style="clip-path: url(#clip-path)">
        <g style="isolation: isolate">
          <path d="M44.67,26.74v-.27l.7,0-.39.25h-.31" style="fill: #353029"/>
          <path d="M45,26.74l.39-.25a16.2,16.2,0,0,1,1.76.16l-1.35.17c-.25,0-.52-.06-.8-.08" style="fill: #37312a"/>
          <path d="M45.78,26.82l1.35-.17c.43.07.85.15,1.24.25l-2,0-.57-.11" style="fill: #38332b"/>
          <path d="M46.35,26.93l2,0a8.78,8.78,0,0,1,1,.28l-2.54-.12-.43-.13" style="fill: #3a342d"/>
          <path d="M46.78,27.06l2.54.12c.26.09.51.19.74.29l-2.94-.28-.34-.13" style="fill: #3c362e"/>
          <path d="M47.12,27.19l2.94.28a6.49,6.49,0,0,1,.59.31l-3.26-.45-.27-.14" style="fill: #3e3830"/>
          <path d="M47.39,27.33l3.26.45c.17.1.32.21.46.31l-3.51-.61-.21-.15" style="fill: #403931"/>
          <path d="M47.6,27.48l3.51.61a3.88,3.88,0,0,1,.36.32l-3.71-.79a1.07,1.07,0,0,0-.16-.14" style="fill: #423b32"/>
          <path d="M47.76,27.62l3.71.79a2.44,2.44,0,0,1,.26.32l-3.85-1a.79.79,0,0,0-.12-.15" style="fill: #433d34"/>
          <path d="M47.88,27.77l3.85,1a1.73,1.73,0,0,1,.17.33L48,27.91a.64.64,0,0,0-.08-.14" style="fill: #453e35"/>
          <path d="M48,27.91l3.94,1.15a1,1,0,0,1,.09.34l-4-1.33a.75.75,0,0,0,0-.16" style="fill: #474037"/>
          <path d="M48,28.07l4,1.33a.91.91,0,0,1,0,.17l-4-1.42v-.08" style="fill: #494238"/>
        </g>
      </g>
    </g>
    <g style="isolation: isolate">
      <g style="clip-path: url(#clip-path-2)">
        <g style="isolation: isolate">
          <path d="M11.06,28.15l-4,1.42a1.5,1.5,0,0,1,.05-.37l4-1.22a.88.88,0,0,0,0,.17" style="fill: #38332b"/>
          <path d="M11.08,28l-4,1.22a1.91,1.91,0,0,1,.44-.74l3.73-.82a.92.92,0,0,0-.2.34" style="fill: #37312a"/>
          <path d="M11.28,27.64l-3.73.82a5.43,5.43,0,0,1,2.24-1.3l2.52-.11a2.61,2.61,0,0,0-1,.59" style="fill: #353029"/>
          <path d="M12.31,27.05l-2.52.11a12.8,12.8,0,0,1,1.57-.41l1.66.12a4.32,4.32,0,0,0-.71.18" style="fill: #332e27"/>
          <path d="M13,26.87l-1.66-.12a16,16,0,0,1,3-.28v.27a6.67,6.67,0,0,0-1.38.13" style="fill: #353029"/>
        </g>
      </g>
    </g>
    <polygon points="48.01 28.15 52.01 29.57 52.01 124.33 48.01 122.9 48.01 28.15" style="fill: #4e463c"/>
    <polygon points="11.06 122.9 7.06 124.33 7.06 29.57 11.06 28.15 11.06 122.9" style="fill: #3d372f"/>
    <path d="M44.67,26.74c1.83,0,3.33.63,3.33,1.41V122.9c0,.78-1.5,1.41-3.33,1.41H14.4c-1.84,0-3.34-.63-3.34-1.41V28.15c0-.78,1.5-1.41,3.34-1.41Z" style="fill: #484137"/>
    <rect x="14.4" y="124.31" width="30.27" height="3.12" style="fill: #524a3f"/>
    <g style="isolation: isolate">
      <g style="clip-path: url(#clip-path-3)">
        <g style="isolation: isolate">
          <path d="M48,122.9l4,1.43a1,1,0,0,1,0,.17L48,123v-.08" style="fill: #494238"/>
          <path d="M48,123l4,1.52a1.27,1.27,0,0,1-.1.37L48,123.14a.43.43,0,0,0,0-.16" style="fill: #4b4339"/>
          <path d="M48,123.14l3.94,1.73a1.63,1.63,0,0,1-.22.38l-3.82-1.93a.54.54,0,0,0,.1-.18" style="fill: #4c453b"/>
          <path d="M47.85,123.32l3.82,1.93a2.56,2.56,0,0,1-.39.42l-3.61-2.16a1.57,1.57,0,0,0,.18-.19" style="fill: #4e473c"/>
          <path d="M47.67,123.51l3.61,2.16a5,5,0,0,1-.7.49l-3.22-2.43a1.89,1.89,0,0,0,.31-.22" style="fill: #50483e"/>
          <path d="M47.36,123.73l3.22,2.43a11.52,11.52,0,0,1-4.85,1.23l-.58-3.1a5.17,5.17,0,0,0,2.21-.56" style="fill: #524a3f"/>
          <path d="M45.15,124.29l.58,3.1c-.35,0-.7,0-1.06,0v-3.11l.48,0" style="fill: #50483e"/>
        </g>
      </g>
    </g>
    <g style="isolation: isolate">
      <g style="clip-path: url(#clip-path-4)">
        <g style="isolation: isolate">
          <path d="M52,124.33v0" style="fill: #353029"/>
          <path d="M52,124.35v6.22a1.94,1.94,0,0,1,0,.24v-6.22a1.94,1.94,0,0,0,0-.24" style="fill: #37312a"/>
          <path d="M52,124.59v6.22a1.87,1.87,0,0,1-.07.22v-6.21a1.55,1.55,0,0,0,.07-.23" style="fill: #38332b"/>
          <path d="M51.91,124.82V131a1.47,1.47,0,0,1-.1.22V125a2.14,2.14,0,0,0,.1-.22" style="fill: #3a342d"/>
          <path d="M51.81,125v6.21l-.14.22v-6.22l.14-.21" style="fill: #3c362e"/>
          <path d="M51.67,125.25v6.22c-.06.07-.11.14-.18.21v-6.21c.07-.07.12-.15.18-.22" style="fill: #3e3830"/>
          <path d="M51.49,125.47v6.21l-.23.22v-6.22l.23-.21" style="fill: #403931"/>
          <path d="M51.26,125.68v6.22c-.09.07-.18.15-.29.22v-6.21l.29-.23" style="fill: #423b32"/>
          <path d="M51,125.91v6.21l-.37.24v-6.21l.37-.24" style="fill: #433d34"/>
          <path d="M50.6,126.15v6.21c-.18.1-.37.2-.57.29v-6.21c.2-.09.39-.19.57-.29" style="fill: #453e35"/>
          <path d="M50,126.44v6.21a9.4,9.4,0,0,1-1.42.5v-6.21a9.4,9.4,0,0,0,1.42-.5" style="fill: #474037"/>
          <path d="M48.61,126.94v6.21l-.22.06V127l.22,0" style="fill: #494238"/>
          <path d="M48.39,127v6.22a14.25,14.25,0,0,1-1.72.31v-6.21a14.22,14.22,0,0,0,1.72-.32" style="fill: #474037"/>
          <path d="M46.67,127.31v6.21l-.83.08v-6.22l.83-.07" style="fill: #453e35"/>
          <path d="M45.84,127.38v6.22l-.66,0v-6.21l.66,0" style="fill: #433d34"/>
          <path d="M45.18,127.42v6.21h-.51v-6.22h.51" style="fill: #423b32"/>
        </g>
      </g>
    </g>
    <rect x="14.4" y="127.42" width="30.27" height="6.21" style="fill: #453e35"/>
    <g style="isolation: isolate">
      <g style="clip-path: url(#clip-path-5)">
        <g style="isolation: isolate">
          <path d="M14.4,127.42v6.22h-.07v-6.22h.07" style="fill: #423b32"/>
          <path d="M14.33,127.42v6.22l-.57,0v-6.21h.57" style="fill: #403931"/>
          <path d="M13.76,127.41v6.21l-.53,0v-6.22c.17,0,.35,0,.53,0" style="fill: #3e3830"/>
          <path d="M13.23,127.38v6.22l-.52,0v-6.21l.52,0" style="fill: #3c362e"/>
          <path d="M12.71,127.34v6.21a4,4,0,0,1-.5-.06v-6.21l.5.06" style="fill: #3a342d"/>
          <path d="M12.21,127.28v6.21l-.51-.07v-6.21l.51.07" style="fill: #38332b"/>
          <path d="M11.7,127.21v6.21l-.51-.1v-6.21l.51.1" style="fill: #37312a"/>
          <path d="M11.19,127.11v6.21c-.19,0-.36-.08-.54-.12V127l.54.12" style="fill: #353029"/>
          <path d="M10.65,127v6.21l-.57-.16v-6.21l.57.16" style="fill: #332e27"/>
          <path d="M10.08,126.83V133c-.24-.07-.46-.15-.68-.23v-6.22a6.8,6.8,0,0,0,.68.24" style="fill: #312c26"/>
          <path d="M9.4,126.59v6.22c-1.44-.57-2.34-1.37-2.34-2.27v-6.21c0,.89.9,1.7,2.34,2.26" style="fill: #2f2b24"/>
        </g>
      </g>
    </g>
    <g style="isolation: isolate">
      <g style="clip-path: url(#clip-path-6)">
        <g style="isolation: isolate">
          <path d="M14.4,124.31v3.11h-.2l.11-3.11h.09" style="fill: #50483e"/>
          <path d="M14.31,124.31l-.11,3.11c-.35,0-.69,0-1,0l.67-3.09.47,0" style="fill: #4e473c"/>
          <path d="M13.84,124.29l-.67,3.09c-.3,0-.6,0-.88-.09l1.15-3,.4,0" style="fill: #4c453b"/>
          <path d="M13.44,124.25l-1.15,3c-.28,0-.54-.07-.8-.12l1.59-3,.36.06" style="fill: #4b4339"/>
          <path d="M13.08,124.19l-1.59,3-.74-.16,2-2.89.34.07" style="fill: #494238"/>
          <path d="M12.74,124.12l-2,2.89c-.23-.05-.46-.12-.67-.18L12.43,124l.31.08" style="fill: #474037"/>
          <path d="M12.43,124l-2.35,2.79c-.22-.07-.43-.14-.63-.22l2.7-2.67.28.1" style="fill: #453e35"/>
          <path d="M12.15,123.94l-2.7,2.67-.57-.24,3-2.54.26.11" style="fill: #433d34"/>
          <path d="M11.89,123.83l-3,2.54-.52-.28,3.29-2.39.24.13" style="fill: #423b32"/>
          <path d="M11.65,123.7l-3.29,2.39a5.15,5.15,0,0,1-.45-.32l3.54-2.21.2.14" style="fill: #403931"/>
          <path d="M11.45,123.56l-3.54,2.21a3.22,3.22,0,0,1-.38-.35l3.74-2,.18.16" style="fill: #3e3830"/>
          <path d="M11.27,123.4l-3.74,2a2.19,2.19,0,0,1-.29-.41l3.9-1.8a2.14,2.14,0,0,0,.13.19" style="fill: #3c362e"/>
          <path d="M11.14,123.21,7.24,125a1.36,1.36,0,0,1-.16-.48l4-1.54a.57.57,0,0,0,.07.22" style="fill: #3a342d"/>
          <path d="M11.07,123l-4,1.54a1.5,1.5,0,0,1,0-.2l4-1.43a.28.28,0,0,0,0,.09" style="fill: #38332b"/>
        </g>
      </g>
    </g>
  </g>
  <g style="isolation: isolate">
    <rect x="156" y="26.47" width="30.28" height="0.27" style="fill: #353029"/>
    <g style="isolation: isolate">
      <g style="clip-path: url(#clip-path-7)">
        <g style="isolation: isolate">
          <path d="M186.27,26.74v-.27l.7,0-.38.25h-.32" style="fill: #353029"/>
          <path d="M186.59,26.74l.38-.25a16,16,0,0,1,1.75.16l-1.34.17c-.25,0-.52-.06-.79-.08" style="fill: #37312a"/>
          <path d="M187.38,26.82l1.34-.17c.43.07.85.15,1.24.25l-2,0-.56-.11" style="fill: #38332b"/>
          <path d="M187.94,26.93l2,0a8.78,8.78,0,0,1,.95.28l-2.53-.12-.44-.13" style="fill: #3a342d"/>
          <path d="M188.38,27.06l2.53.12c.26.09.51.19.74.29l-2.93-.28-.34-.13" style="fill: #3c362e"/>
          <path d="M188.72,27.19l2.93.28a6.71,6.71,0,0,1,.6.31L189,27.33l-.27-.14" style="fill: #3e3830"/>
          <path d="M189,27.33l3.26.45c.17.1.32.21.46.31l-3.51-.61-.21-.15" style="fill: #403931"/>
          <path d="M189.2,27.48l3.51.61c.13.11.25.21.36.32l-3.71-.79a1.07,1.07,0,0,0-.16-.14" style="fill: #423b32"/>
          <path d="M189.36,27.62l3.71.79a3.65,3.65,0,0,1,.26.32l-3.85-1-.12-.15" style="fill: #433d34"/>
          <path d="M189.48,27.77l3.85,1a1.73,1.73,0,0,1,.17.33l-3.94-1.15a.64.64,0,0,0-.08-.14" style="fill: #453e35"/>
          <path d="M189.56,27.91l3.94,1.15a1,1,0,0,1,.09.34l-4-1.33a.94.94,0,0,0,0-.16" style="fill: #474037"/>
          <path d="M189.6,28.07l4,1.33a.91.91,0,0,1,0,.17l-4-1.42v-.08" style="fill: #494238"/>
        </g>
      </g>
    </g>
    <g style="isolation: isolate">
      <g style="clip-path: url(#clip-path-8)">
        <g style="isolation: isolate">
          <path d="M152.67,28.15l-4,1.42a1.14,1.14,0,0,1,.05-.37l4-1.22a.47.47,0,0,0,0,.17" style="fill: #38332b"/>
          <path d="M152.69,28l-4,1.22a1.74,1.74,0,0,1,.44-.74l3.73-.82a.8.8,0,0,0-.2.34" style="fill: #37312a"/>
          <path d="M152.89,27.64l-3.73.82a5.4,5.4,0,0,1,2.27-1.31l2.49-.1a2.43,2.43,0,0,0-1,.59" style="fill: #353029"/>
          <path d="M153.92,27.05l-2.49.1a10.44,10.44,0,0,1,1.49-.39l1.68.11a6.11,6.11,0,0,0-.68.18" style="fill: #332e27"/>
          <path d="M154.6,26.87l-1.68-.11a16.44,16.44,0,0,1,3.08-.29v.27a6.87,6.87,0,0,0-1.4.13" style="fill: #353029"/>
        </g>
      </g>
    </g>
    <polygon points="189.6 28.15 193.6 29.57 193.6 124.33 189.6 122.9 189.6 28.15" style="fill: #4e463c"/>
    <polygon points="152.67 122.9 148.67 124.33 148.67 29.57 152.67 28.15 152.67 122.9" style="fill: #3d372f"/>
    <path d="M186.27,26.74c1.83,0,3.33.63,3.33,1.41V122.9c0,.78-1.5,1.41-3.33,1.41H156c-1.84,0-3.33-.63-3.33-1.41V28.15c0-.78,1.49-1.41,3.33-1.41Z" style="fill: #484137"/>
    <rect x="156" y="124.31" width="30.28" height="3.12" style="fill: #524a3f"/>
    <g style="isolation: isolate">
      <g style="clip-path: url(#clip-path-9)">
        <g style="isolation: isolate">
          <path d="M189.6,122.9l4,1.43a1,1,0,0,1,0,.17l-4-1.52v-.08" style="fill: #494238"/>
          <path d="M189.6,123l4,1.52a1.7,1.7,0,0,1-.1.37l-3.94-1.72a1.09,1.09,0,0,0,0-.17" style="fill: #4b4339"/>
          <path d="M189.55,123.15l3.94,1.72a2.08,2.08,0,0,1-.22.38l-3.82-1.93a1.06,1.06,0,0,0,.1-.17" style="fill: #4c453b"/>
          <path d="M189.45,123.32l3.82,1.93a2.25,2.25,0,0,1-.4.42l-3.6-2.16a1.07,1.07,0,0,0,.18-.19" style="fill: #4e473c"/>
          <path d="M189.27,123.51l3.6,2.16a4.9,4.9,0,0,1-.69.49L189,123.73a1.89,1.89,0,0,0,.31-.22" style="fill: #50483e"/>
          <path d="M189,123.73l3.22,2.43a11.56,11.56,0,0,1-4.85,1.23l-.58-3.1a5.17,5.17,0,0,0,2.21-.56" style="fill: #524a3f"/>
          <path d="M186.75,124.29l.58,3.1c-.34,0-.7,0-1.06,0v-3.11l.48,0" style="fill: #50483e"/>
        </g>
      </g>
    </g>
    <g style="isolation: isolate">
      <g style="clip-path: url(#clip-path-10)">
        <g style="isolation: isolate">
          <path d="M193.6,124.33v0" style="fill: #353029"/>
          <path d="M193.6,124.35v6.22a1,1,0,0,1,0,.24v-6.22a1,1,0,0,0,0-.24" style="fill: #37312a"/>
          <path d="M193.57,124.59v6.22a.9.9,0,0,1-.06.22v-6.21a.86.86,0,0,0,.06-.23" style="fill: #38332b"/>
          <path d="M193.51,124.82V131a1.51,1.51,0,0,1-.11.22V125l.11-.22" style="fill: #3a342d"/>
          <path d="M193.4,125v6.21a2.53,2.53,0,0,1-.13.22v-6.22a2.39,2.39,0,0,0,.13-.21" style="fill: #3c362e"/>
          <path d="M193.27,125.25v6.22l-.18.21v-6.21l.18-.22" style="fill: #3e3830"/>
          <path d="M193.09,125.47v6.21l-.23.22v-6.22l.23-.21" style="fill: #403931"/>
          <path d="M192.86,125.68v6.22l-.29.22v-6.21l.29-.23" style="fill: #423b32"/>
          <path d="M192.57,125.91v6.21l-.38.24v-6.21l.38-.24" style="fill: #433d34"/>
          <path d="M192.19,126.15v6.21a5.85,5.85,0,0,1-.56.29v-6.21a5.85,5.85,0,0,0,.56-.29" style="fill: #453e35"/>
          <path d="M191.63,126.44v6.21a9.4,9.4,0,0,1-1.42.5v-6.21a9.4,9.4,0,0,0,1.42-.5" style="fill: #474037"/>
          <path d="M190.21,126.94v6.21l-.22.06V127l.22,0" style="fill: #494238"/>
          <path d="M190,127v6.22a14.42,14.42,0,0,1-1.73.31v-6.21A14.39,14.39,0,0,0,190,127" style="fill: #474037"/>
          <path d="M188.26,127.31v6.21l-.82.08v-6.22l.82-.07" style="fill: #453e35"/>
          <path d="M187.44,127.38v6.22l-.66,0v-6.21l.66,0" style="fill: #433d34"/>
          <path d="M186.78,127.42v6.21h-.51v-6.22h.51" style="fill: #423b32"/>
        </g>
      </g>
    </g>
    <rect x="156" y="127.42" width="30.28" height="6.21" style="fill: #453e35"/>
    <g style="isolation: isolate">
      <g style="clip-path: url(#clip-path-11)">
        <g style="isolation: isolate">
          <path d="M156,127.42v6.22h-.08v-6.22H156" style="fill: #423b32"/>
          <path d="M155.92,127.42v6.22l-.56,0v-6.21h.56" style="fill: #403931"/>
          <path d="M155.36,127.41v6.21l-.53,0v-6.22c.17,0,.35,0,.53,0" style="fill: #3e3830"/>
          <path d="M154.83,127.38v6.22l-.52,0v-6.21l.52,0" style="fill: #3c362e"/>
          <path d="M154.31,127.34v6.21a4,4,0,0,1-.5-.06v-6.21l.5.06" style="fill: #3a342d"/>
          <path d="M153.81,127.28v6.21l-.51-.07v-6.21l.51.07" style="fill: #38332b"/>
          <path d="M153.3,127.21v6.21l-.51-.1v-6.21l.51.1" style="fill: #37312a"/>
          <path d="M152.79,127.11v6.21a4.54,4.54,0,0,1-.53-.12V127l.53.12" style="fill: #353029"/>
          <path d="M152.26,127v6.21l-.58-.16v-6.21l.58.16" style="fill: #332e27"/>
          <path d="M151.68,126.83V133l-.67-.23v-6.22a6.61,6.61,0,0,0,.67.24" style="fill: #312c26"/>
          <path d="M151,126.59v6.22c-1.44-.57-2.34-1.37-2.34-2.27v-6.21c0,.89.9,1.7,2.34,2.26" style="fill: #2f2b24"/>
        </g>
      </g>
    </g>
    <g style="isolation: isolate">
      <g style="clip-path: url(#clip-path-12)">
        <g style="isolation: isolate">
          <path d="M156,124.31v3.11h-.21l.11-3.11h.1" style="fill: #50483e"/>
          <path d="M155.9,124.31l-.11,3.11c-.34,0-.69,0-1,0l.67-3.09.46,0" style="fill: #4e473c"/>
          <path d="M155.44,124.29l-.67,3.09c-.3,0-.6,0-.88-.09l1.15-3,.4,0" style="fill: #4c453b"/>
          <path d="M155,124.25l-1.15,3c-.28,0-.54-.07-.8-.12l1.59-3,.36.06" style="fill: #4b4339"/>
          <path d="M154.68,124.19l-1.59,3-.73-.16,2-2.89.34.07" style="fill: #494238"/>
          <path d="M154.34,124.12l-2,2.89a6.75,6.75,0,0,1-.68-.18L154,124l.3.08" style="fill: #474037"/>
          <path d="M154,124l-2.36,2.79-.62-.22,2.69-2.67.29.1" style="fill: #453e35"/>
          <path d="M153.75,123.94l-2.69,2.67c-.2-.07-.39-.16-.57-.24l3-2.54.26.11" style="fill: #433d34"/>
          <path d="M153.49,123.83l-3,2.54a5,5,0,0,1-.52-.28l3.29-2.39a1.71,1.71,0,0,0,.23.13" style="fill: #423b32"/>
          <path d="M153.26,123.7,150,126.09c-.16-.1-.31-.21-.45-.31l3.53-2.22a1.53,1.53,0,0,0,.21.14" style="fill: #403931"/>
          <path d="M153.05,123.56l-3.53,2.22a4.43,4.43,0,0,1-.38-.36l3.74-2,.17.16" style="fill: #3e3830"/>
          <path d="M152.88,123.4l-3.74,2a1.81,1.81,0,0,1-.29-.41l3.9-1.8a.8.8,0,0,0,.13.19" style="fill: #3c362e"/>
          <path d="M152.75,123.21l-3.9,1.8a1.38,1.38,0,0,1-.17-.48l4-1.54a.83.83,0,0,0,.08.22" style="fill: #3a342d"/>
          <path d="M152.67,123l-4,1.54a1.41,1.41,0,0,1,0-.2l4-1.43V123" style="fill: #38332b"/>
        </g>
      </g>
    </g>
  </g>
  <g style="isolation: isolate">
    <polygon points="29.53 31.05 25.53 30.79 178.21 30.79 174.21 31.05 29.53 31.05" style="fill: #423b33"/>
    <polygon points="174.21 31.05 178.21 30.79 178.21 115.59 174.21 114.17 174.21 31.05" style="fill: #61574c"/>
    <polygon points="29.53 114.17 25.53 115.59 25.53 30.79 29.53 31.05 29.53 114.17" style="fill: #4c443b"/>
    <path d="M174.21,31.05v83.12c0,1.51-2.92,2.74-6.5,2.74H36c-3.58,0-6.5-1.23-6.5-2.74V31.05Z" style="fill: #595045"/>
    <rect x="36.03" y="116.91" width="131.68" height="3.12" style="fill: #665b50"/>
    <g style="isolation: isolate">
      <g style="clip-path: url(#clip-path-13)">
        <g style="isolation: isolate">
          <path d="M174.21,114.17l4,1.42a1,1,0,0,1,0,.25l-4-1.52a.76.76,0,0,0,0-.15" style="fill: #5a5146"/>
          <path d="M174.2,114.32l4,1.52a2,2,0,0,1-.14.53l-3.94-1.72a1,1,0,0,0,.09-.33" style="fill: #5d5348"/>
          <path d="M174.11,114.65l3.94,1.72a2.61,2.61,0,0,1-.32.55L173.92,115a1.93,1.93,0,0,0,.19-.34" style="fill: #5f554a"/>
          <path d="M173.92,115l3.81,1.93a4.39,4.39,0,0,1-.56.6l-3.6-2.16a4,4,0,0,0,.35-.37" style="fill: #61574c"/>
          <path d="M173.57,115.36l3.6,2.16a6.74,6.74,0,0,1-1,.7L173,115.79a5.17,5.17,0,0,0,.62-.43" style="fill: #63594d"/>
          <path d="M173,115.79l3.22,2.43a16.5,16.5,0,0,1-6.94,1.76l-.58-3.09a10.25,10.25,0,0,0,4.3-1.1" style="fill: #665b4f"/>
          <path d="M168.65,116.89l.58,3.09c-.49,0-1,0-1.52,0v-3.12l.94,0" style="fill: #63594d"/>
        </g>
      </g>
    </g>
    <g style="isolation: isolate">
      <g style="clip-path: url(#clip-path-14)">
        <g style="isolation: isolate">
          <path d="M178.21,115.59v0" style="fill: #423b33"/>
          <path d="M178.21,115.63v6.22a1.32,1.32,0,0,1,0,.34V116a1.34,1.34,0,0,0,0-.35" style="fill: #443d35"/>
          <path d="M178.17,116v6.21a2,2,0,0,1-.09.33V116.3a1.68,1.68,0,0,0,.09-.32" style="fill: #463f37"/>
          <path d="M178.08,116.3v6.22a2.89,2.89,0,0,1-.15.31v-6.22a1.77,1.77,0,0,0,.15-.31" style="fill: #484138"/>
          <path d="M177.93,116.61v6.22a2.61,2.61,0,0,1-.2.3v-6.21a2,2,0,0,0,.2-.31" style="fill: #4b433a"/>
          <path d="M177.73,116.92v6.21a2.51,2.51,0,0,1-.26.31v-6.22a3.48,3.48,0,0,0,.26-.3" style="fill: #4d453c"/>
          <path d="M177.47,117.22v6.22a3.17,3.17,0,0,1-.32.31v-6.22a2.36,2.36,0,0,0,.32-.31" style="fill: #4f473e"/>
          <path d="M177.15,117.53v6.22l-.41.32v-6.21c.14-.11.28-.21.41-.33" style="fill: #51493f"/>
          <path d="M176.74,117.86v6.21a5.77,5.77,0,0,1-.55.35V118.2a5.74,5.74,0,0,0,.55-.34" style="fill: #544b41"/>
          <path d="M176.19,118.2v6.22c-.25.14-.52.28-.81.41v-6.21a7.68,7.68,0,0,0,.81-.42" style="fill: #564d43"/>
          <path d="M175.38,118.62v6.21a13.32,13.32,0,0,1-2,.72v-6.22a13.34,13.34,0,0,0,2-.71" style="fill: #584f45"/>
          <path d="M173.35,119.33v6.22l-.32.08v-6.21l.32-.09" style="fill: #5a5146"/>
          <path d="M173,119.42v6.21a21,21,0,0,1-2.47.45v-6.22a19.14,19.14,0,0,0,2.47-.44" style="fill: #584f45"/>
          <path d="M170.56,119.86v6.22l-1.17.11V120c.4,0,.79-.06,1.17-.11" style="fill: #564d43"/>
          <path d="M169.39,120v6.22l-.94,0V120l.94,0" style="fill: #544b41"/>
          <path d="M168.45,120v6.21h-.74V120h.74" style="fill: #51493f"/>
        </g>
      </g>
    </g>
    <rect x="36.03" y="120.03" width="131.68" height="6.21" style="fill: #564c43"/>
    <g style="isolation: isolate">
      <g style="clip-path: url(#clip-path-15)">
        <g style="isolation: isolate">
          <path d="M36,120v6.21h-.1V120H36" style="fill: #51493f"/>
          <path d="M35.93,120v6.21h-.81V120l.81,0" style="fill: #4f473e"/>
          <path d="M35.12,120v6.22l-.76,0V120l.76,0" style="fill: #4d453c"/>
          <path d="M34.36,120v6.22l-.73-.06v-6.22c.24,0,.48,0,.73.06" style="fill: #4b433a"/>
          <path d="M33.63,119.91v6.22L32.9,126v-6.21l.73.08" style="fill: #484138"/>
          <path d="M32.9,119.83V126l-.72-.11v-6.21l.72.11" style="fill: #463f37"/>
          <path d="M32.18,119.72v6.21l-.74-.13v-6.22l.74.14" style="fill: #443d35"/>
          <path d="M31.44,119.58v6.22l-.76-.18v-6.21l.76.17" style="fill: #423b33"/>
          <path d="M30.68,119.41v6.21l-.82-.23v-6.21l.82.23" style="fill: #3f3931"/>
          <path d="M29.86,119.18v6.21a8.48,8.48,0,0,1-1-.34v-6.21c.3.12.63.24,1,.34" style="fill: #3d3730"/>
          <path d="M28.89,118.84v6.21c-2.07-.81-3.36-2-3.36-3.24v-6.22c0,1.29,1.29,2.44,3.36,3.25" style="fill: #3b352e"/>
        </g>
      </g>
    </g>
    <g style="isolation: isolate">
      <g style="clip-path: url(#clip-path-16)">
        <g style="isolation: isolate">
          <path d="M36,116.91V120h-.28l.11-3.12H36" style="fill: #63594d"/>
          <path d="M35.86,116.91,35.75,120q-.75,0-1.47-.06l.67-3.09c.3,0,.6,0,.91,0" style="fill: #61574c"/>
          <path d="M35,116.88,34.28,120c-.43,0-.85-.07-1.26-.13l1.15-3,.78.08" style="fill: #5f554a"/>
          <path d="M34.17,116.8l-1.15,3-1.15-.17,1.59-3,.71.11" style="fill: #5d5348"/>
          <path d="M33.46,116.69l-1.59,3c-.36-.07-.71-.14-1-.23l2-2.89.65.14" style="fill: #5a5146"/>
          <path d="M32.81,116.55l-2,2.89c-.34-.08-.66-.16-1-.26l2.35-2.79.6.16" style="fill: #584f45"/>
          <path d="M32.21,116.39l-2.35,2.79c-.32-.1-.62-.2-.9-.31l2.69-2.67.56.19" style="fill: #564d43"/>
          <path d="M31.65,116.2,29,118.87c-.29-.11-.56-.23-.82-.35l3-2.54.5.22" style="fill: #544b41"/>
          <path d="M31.15,116l-3,2.54c-.27-.13-.51-.26-.74-.4l3.29-2.39c.14.08.29.17.46.25" style="fill: #51493f"/>
          <path d="M30.69,115.73l-3.29,2.39a7.31,7.31,0,0,1-.65-.45l3.53-2.22a4.21,4.21,0,0,0,.41.28" style="fill: #4f473e"/>
          <path d="M30.28,115.45l-3.53,2.22a5.52,5.52,0,0,1-.55-.51l3.75-2a2.51,2.51,0,0,0,.33.32" style="fill: #4d453c"/>
          <path d="M30,115.13l-3.75,2a3.14,3.14,0,0,1-.41-.59l3.9-1.8a1.27,1.27,0,0,0,.26.36" style="fill: #4b433a"/>
          <path d="M29.69,114.77l-3.9,1.8a2.21,2.21,0,0,1-.24-.68l4-1.54a1.06,1.06,0,0,0,.15.42" style="fill: #484138"/>
          <path d="M29.54,114.35l-4,1.54c0-.1,0-.2,0-.3l4-1.42a1.09,1.09,0,0,0,0,.18" style="fill: #463f37"/>
        </g>
      </g>
    </g>
  </g>
  <g style="isolation: isolate">
    <rect x="65.38" y="34.56" width="74.51" height="0.27" style="fill: #353029"/>
    <g style="isolation: isolate">
      <g style="clip-path: url(#clip-path-17)">
        <g style="isolation: isolate">
          <path d="M139.89,34.83v-.27c.52,0,1,0,1.54,0l-.39.26-1.15,0" style="fill: #353029"/>
          <path d="M141,34.85l.39-.26a37.55,37.55,0,0,1,3.82.36l-1.34.17a25.66,25.66,0,0,0-2.87-.27" style="fill: #37312a"/>
          <path d="M143.91,35.12l1.34-.17c.94.15,1.84.32,2.69.53l-2,0c-.64-.16-1.32-.29-2-.4" style="fill: #38332b"/>
          <path d="M145.93,35.52l2,0c.73.18,1.42.39,2.07.61L147.48,36c-.49-.17-1-.33-1.55-.46" style="fill: #3a342d"/>
          <path d="M147.48,36l2.53.11c.58.2,1.12.42,1.63.65l-2.94-.28c-.38-.17-.79-.33-1.22-.48" style="fill: #3c362e"/>
          <path d="M148.7,36.46l2.94.28c.46.21.89.44,1.29.67L149.67,37a9.77,9.77,0,0,0-1-.51" style="fill: #3e3830"/>
          <path d="M149.67,37l3.26.44a11.82,11.82,0,0,1,1,.68l-3.51-.61a7.18,7.18,0,0,0-.76-.51" style="fill: #403931"/>
          <path d="M150.43,37.48l3.51.61a7.71,7.71,0,0,1,.78.7L151,38a5.93,5.93,0,0,0-.58-.52" style="fill: #423b32"/>
          <path d="M151,38l3.71.79a5.15,5.15,0,0,1,.57.7l-3.85-1A3.39,3.39,0,0,0,151,38" style="fill: #433d34"/>
          <path d="M151.44,38.52l3.85,1a3.55,3.55,0,0,1,.38.72l-3.94-1.15a3.56,3.56,0,0,0-.29-.54" style="fill: #453e35"/>
          <path d="M151.73,39.06l3.94,1.15a3.25,3.25,0,0,1,.2.74l-4-1.33a2.19,2.19,0,0,0-.14-.56" style="fill: #474037"/>
          <path d="M151.87,39.62l4,1.33c0,.12,0,.25,0,.38l-4-1.43a1.32,1.32,0,0,0,0-.28" style="fill: #494238"/>
        </g>
      </g>
    </g>
    <g style="isolation: isolate">
      <g style="clip-path: url(#clip-path-18)">
        <g style="isolation: isolate">
          <path d="M53.39,39.9l-4,1.43a3.24,3.24,0,0,1,.11-.82l4-1.22a2.49,2.49,0,0,0-.08.61" style="fill: #38332b"/>
          <path d="M53.47,39.29l-4,1.22a4.15,4.15,0,0,1,1-1.61l3.74-.82a3.14,3.14,0,0,0-.72,1.21" style="fill: #37312a"/>
          <path d="M54.19,38.08l-3.74.82a12,12,0,0,1,5-2.86l2.49-.1a8.8,8.8,0,0,0-3.73,2.14" style="fill: #353029"/>
          <path d="M57.92,35.94l-2.49.1a25.21,25.21,0,0,1,3.28-.86l1.68.11a17.73,17.73,0,0,0-2.47.65" style="fill: #332e27"/>
          <path d="M60.39,35.29l-1.68-.11a34.92,34.92,0,0,1,6.67-.62v.27a26,26,0,0,0-5,.46" style="fill: #353029"/>
        </g>
      </g>
    </g>
    <polygon points="151.89 39.9 155.89 41.33 155.89 91.02 151.89 89.6 151.89 39.9" style="fill: #4e463c"/>
    <polygon points="53.39 89.6 49.39 91.02 49.39 41.33 53.39 39.9 53.39 89.6" style="fill: #3d372f"/>
    <path d="M139.89,34.83c6.6,0,12,2.28,12,5.07V89.6c0,2.79-5.4,5.07-12,5.07H65.38c-6.59,0-12-2.28-12-5.07V39.9c0-2.79,5.4-5.07,12-5.07Z" style="fill: #484137"/>
    <rect x="65.38" y="94.67" width="74.51" height="3.12" style="fill: #524a3f"/>
    <g style="isolation: isolate">
      <g style="clip-path: url(#clip-path-19)">
        <g style="isolation: isolate">
          <path d="M151.89,89.6l4,1.42c0,.13,0,.26,0,.39l-4-1.52a1.42,1.42,0,0,0,0-.29" style="fill: #494238"/>
          <path d="M151.87,89.89l4,1.52a3.21,3.21,0,0,1-.22.79l-3.94-1.72a2.07,2.07,0,0,0,.16-.59" style="fill: #4b4339"/>
          <path d="M151.71,90.48l3.94,1.72a4,4,0,0,1-.49.84l-3.81-1.93a2.84,2.84,0,0,0,.36-.63" style="fill: #4c453b"/>
          <path d="M151.35,91.11,155.16,93a5.63,5.63,0,0,1-.86.92l-3.6-2.16a4.64,4.64,0,0,0,.65-.69" style="fill: #4e473c"/>
          <path d="M150.7,91.8,154.3,94A9.66,9.66,0,0,1,152.78,95l-3.22-2.42a7.37,7.37,0,0,0,1.14-.8" style="fill: #50483e"/>
          <path d="M149.56,92.6,152.78,95a25.16,25.16,0,0,1-10.57,2.7l-.58-3.1a18.88,18.88,0,0,0,7.93-2" style="fill: #524a3f"/>
          <path d="M141.63,94.62l.58,3.1c-.76,0-1.53.07-2.32.07V94.67c.59,0,1.17,0,1.74,0" style="fill: #50483e"/>
        </g>
      </g>
    </g>
    <g style="isolation: isolate">
      <g style="clip-path: url(#clip-path-20)">
        <g style="isolation: isolate">
          <path d="M155.89,91v0" style="fill: #353029"/>
          <path d="M155.89,91.09V97.3a2.39,2.39,0,0,1-.06.53V91.61a2.24,2.24,0,0,0,.06-.52" style="fill: #37312a"/>
          <path d="M155.83,91.61v6.22a3,3,0,0,1-.14.49V92.1a2.75,2.75,0,0,0,.14-.49" style="fill: #38332b"/>
          <path d="M155.69,92.1v6.22a5.08,5.08,0,0,1-.23.47V92.58a5.24,5.24,0,0,0,.23-.48" style="fill: #3a342d"/>
          <path d="M155.46,92.58v6.21a4.1,4.1,0,0,1-.3.47V93a4,4,0,0,0,.3-.46" style="fill: #3c362e"/>
          <path d="M155.16,93v6.22c-.12.15-.25.31-.39.46V93.51a5.71,5.71,0,0,0,.39-.47" style="fill: #3e3830"/>
          <path d="M154.77,93.51v6.21c-.15.16-.32.32-.5.48V94a5.64,5.64,0,0,0,.5-.47" style="fill: #403931"/>
          <path d="M154.27,94v6.22c-.19.16-.4.33-.63.49V94.48a6.6,6.6,0,0,0,.63-.5" style="fill: #423b32"/>
          <path d="M153.64,94.48v6.21c-.26.18-.53.36-.83.53V95c.3-.17.57-.34.83-.52" style="fill: #433d34"/>
          <path d="M152.81,95v6.22q-.57.33-1.23.63V95.64a11.8,11.8,0,0,0,1.23-.64" style="fill: #453e35"/>
          <path d="M151.58,95.64v6.21a20.12,20.12,0,0,1-3.11,1.09V96.73a21.23,21.23,0,0,0,3.11-1.09" style="fill: #474037"/>
          <path d="M148.47,96.73v6.21l-.47.13V96.85l.47-.12" style="fill: #494238"/>
          <path d="M148,96.85v6.22a31.3,31.3,0,0,1-3.77.68V97.53a31.3,31.3,0,0,0,3.77-.68" style="fill: #474037"/>
          <path d="M144.23,97.53v6.22c-.58.07-1.18.12-1.78.16V97.7c.6,0,1.2-.1,1.78-.17" style="fill: #453e35"/>
          <path d="M142.45,97.7v6.21c-.47,0-.95.06-1.43.07V97.77c.48,0,1,0,1.43-.07" style="fill: #433d34"/>
          <path d="M141,97.77V104c-.37,0-.75,0-1.13,0V97.79l1.13,0" style="fill: #423b32"/>
        </g>
      </g>
    </g>
    <rect x="65.38" y="97.79" width="74.51" height="6.21" style="fill: #453e35"/>
    <g style="isolation: isolate">
      <g style="clip-path: url(#clip-path-21)">
        <g style="isolation: isolate">
          <path d="M65.38,97.79V104h-.16V97.79h.16" style="fill: #423b32"/>
          <path d="M65.22,97.79V104L64,104V97.76c.4,0,.81,0,1.22,0" style="fill: #403931"/>
          <path d="M64,97.76V104l-1.15-.06V97.7c.38,0,.76,0,1.15.06" style="fill: #3e3830"/>
          <path d="M62.85,97.7v6.22l-1.12-.1V97.61c.37,0,.74.07,1.12.09" style="fill: #3c362e"/>
          <path d="M61.73,97.61v6.21l-1.1-.13V97.48l1.1.13" style="fill: #3a342d"/>
          <path d="M60.63,97.48v6.21c-.37,0-.74-.1-1.1-.16V97.32l1.1.16" style="fill: #38332b"/>
          <path d="M59.53,97.32v6.21c-.38-.06-.75-.13-1.12-.21V97.11l1.12.21" style="fill: #37312a"/>
          <path d="M58.41,97.11v6.21l-1.17-.26V96.84q.57.15,1.17.27" style="fill: #353029"/>
          <path d="M57.24,96.84v6.22c-.43-.11-.84-.23-1.25-.35V96.49c.41.13.82.24,1.25.35" style="fill: #332e27"/>
          <path d="M56,96.49v6.22c-.51-.16-1-.34-1.48-.52V96c.47.18,1,.35,1.48.51" style="fill: #312c26"/>
          <path d="M54.51,96v6.21c-3.15-1.24-5.12-3-5.12-5V91c0,2,2,3.72,5.12,5" style="fill: #2f2b24"/>
        </g>
      </g>
    </g>
    <g style="isolation: isolate">
      <g style="clip-path: url(#clip-path-22)">
        <g style="isolation: isolate">
          <path d="M65.38,94.67v3.12h-.44l.11-3.12h.33" style="fill: #50483e"/>
          <path d="M65.05,94.67l-.11,3.12c-.75,0-1.5,0-2.22-.1l.67-3.09c.54,0,1.1.06,1.66.07" style="fill: #4e473c"/>
          <path d="M63.39,94.6l-.67,3.09c-.65,0-1.29-.11-1.92-.19l1.15-3c.47.06.95.11,1.44.14" style="fill: #4c453b"/>
          <path d="M62,94.46l-1.15,3c-.59-.07-1.17-.16-1.74-.26l1.59-3c.42.08.86.14,1.3.2" style="fill: #4b4339"/>
          <path d="M60.65,94.26l-1.59,3c-.54-.1-1.08-.22-1.59-.34l2-2.9c.39.1.79.18,1.2.26" style="fill: #494238"/>
          <path d="M59.45,94l-2,2.9c-.51-.13-1-.26-1.48-.41l2.36-2.79c.35.11.72.21,1.1.3" style="fill: #474037"/>
          <path d="M58.35,93.7,56,96.49c-.48-.14-.93-.3-1.37-.47l2.7-2.67c.32.12.67.24,1,.35" style="fill: #453e35"/>
          <path d="M57.32,93.35,54.62,96c-.44-.17-.86-.35-1.25-.54l3-2.54c.29.14.61.28.94.41" style="fill: #433d34"/>
          <path d="M56.38,92.94l-3,2.54c-.4-.19-.78-.4-1.13-.61l3.29-2.39a7.53,7.53,0,0,0,.85.46" style="fill: #423b32"/>
          <path d="M55.53,92.48l-3.29,2.39a9.58,9.58,0,0,1-1-.69L54.78,92a7,7,0,0,0,.75.51" style="fill: #403931"/>
          <path d="M54.78,92l-3.53,2.21a6.24,6.24,0,0,1-.83-.77l3.74-2a5.86,5.86,0,0,0,.62.59" style="fill: #3e3830"/>
          <path d="M54.16,91.38l-3.74,2a5.09,5.09,0,0,1-.64-.89l3.9-1.8a3.26,3.26,0,0,0,.48.66" style="fill: #3c362e"/>
          <path d="M53.68,90.72l-3.9,1.8a3.48,3.48,0,0,1-.36-1l4-1.54a3,3,0,0,0,.27.78" style="fill: #3a342d"/>
          <path d="M53.41,89.94l-4,1.54a3.44,3.44,0,0,1,0-.46l4-1.42c0,.11,0,.23,0,.34" style="fill: #38332b"/>
        </g>
      </g>
    </g>
  </g>
  <g style="isolation: isolate">
    <polygon points="75.71 52.22 71.71 51.95 135.11 51.95 131.11 52.22 75.71 52.22" style="fill: #423b33"/>
    <polygon points="131.11 52.22 135.11 51.95 135.11 81.06 131.11 79.63 131.11 52.22" style="fill: #61574c"/>
    <polygon points="75.71 79.63 71.71 81.06 71.71 51.95 75.71 52.22 75.71 79.63" style="fill: #4c443b"/>
    <path d="M131.11,52.22V79.63c0,2.1-4.05,3.81-9,3.81H84.71c-4.95,0-9-1.71-9-3.81V52.22Z" style="fill: #595045"/>
    <rect x="84.71" y="83.44" width="37.4" height="3.12" style="fill: #665b50"/>
    <g style="isolation: isolate">
      <g style="clip-path: url(#clip-path-23)">
        <g style="isolation: isolate">
          <path d="M131.11,79.63l4,1.43c0,.1,0,.21,0,.31l-4-1.52a1.55,1.55,0,0,0,0-.22" style="fill: #5a5146"/>
          <path d="M131.1,79.85l4,1.52a2.52,2.52,0,0,1-.18.65L131,80.3a1.91,1.91,0,0,0,.13-.45" style="fill: #5d5348"/>
          <path d="M131,80.3,134.91,82a3.6,3.6,0,0,1-.39.68l-3.82-1.93a1.89,1.89,0,0,0,.27-.47" style="fill: #5f554a"/>
          <path d="M130.7,80.77l3.82,1.93a5.33,5.33,0,0,1-.7.74l-3.6-2.16a3.24,3.24,0,0,0,.48-.51" style="fill: #61574c"/>
          <path d="M130.22,81.28l3.6,2.16a7.43,7.43,0,0,1-1.23.87l-3.23-2.43a5.4,5.4,0,0,0,.86-.6" style="fill: #63594d"/>
          <path d="M129.36,81.88l3.23,2.43A20.67,20.67,0,0,1,124,86.5l-.58-3.1a14.23,14.23,0,0,0,6-1.52" style="fill: #665b4f"/>
          <path d="M123.41,83.4l.58,3.1c-.61,0-1.24,0-1.88,0V83.44c.44,0,.88,0,1.3,0" style="fill: #63594d"/>
        </g>
      </g>
    </g>
    <g style="isolation: isolate">
      <g style="clip-path: url(#clip-path-24)">
        <g style="isolation: isolate">
          <path d="M135.11,81.06v0" style="fill: #423b33"/>
          <path d="M135.11,81.11v6.21a2,2,0,0,1-.05.43V81.54a2.1,2.1,0,0,0,.05-.43" style="fill: #443d35"/>
          <path d="M135.06,81.54v6.21a3,3,0,0,1-.12.4V81.94a3.57,3.57,0,0,0,.12-.4" style="fill: #463f37"/>
          <path d="M134.94,81.94v6.21a2.64,2.64,0,0,1-.18.38V82.32a3.26,3.26,0,0,0,.18-.38" style="fill: #484138"/>
          <path d="M134.76,82.32v6.21a3,3,0,0,1-.24.38V82.7a4,4,0,0,0,.24-.38" style="fill: #4b433a"/>
          <path d="M134.52,82.7v6.21a3.79,3.79,0,0,1-.32.38V83.08c.12-.13.22-.25.32-.38" style="fill: #4d453c"/>
          <path d="M134.2,83.08v6.21c-.12.13-.26.26-.4.39V83.46a4.83,4.83,0,0,0,.4-.38" style="fill: #4f473e"/>
          <path d="M133.8,83.46v6.22c-.16.13-.33.27-.52.4V83.86a5.47,5.47,0,0,0,.52-.4" style="fill: #51493f"/>
          <path d="M133.28,83.86v6.22c-.21.14-.43.29-.67.43V84.29c.24-.14.46-.28.67-.43" style="fill: #544b41"/>
          <path d="M132.61,84.29v6.22c-.31.17-.64.35-1,.51V84.8a10.36,10.36,0,0,0,1-.51" style="fill: #564d43"/>
          <path d="M131.61,84.8V91a17.73,17.73,0,0,1-2.53.89V85.69a16.58,16.58,0,0,0,2.53-.89" style="fill: #584f45"/>
          <path d="M129.08,85.69v6.22l-.38.1V85.79l.38-.1" style="fill: #5a5146"/>
          <path d="M128.7,85.79V92a26.54,26.54,0,0,1-3.06.55V86.35a24.52,24.52,0,0,0,3.06-.56" style="fill: #584f45"/>
          <path d="M125.64,86.35v6.21c-.47.06-1,.1-1.45.14V86.48c.49,0,1-.08,1.45-.13" style="fill: #564d43"/>
          <path d="M124.19,86.48V92.7l-1.17,0V86.54c.4,0,.78,0,1.17-.06" style="fill: #544b41"/>
          <path d="M123,86.54v6.21l-.91,0V86.55H123" style="fill: #51493f"/>
        </g>
      </g>
    </g>
    <rect x="84.71" y="86.55" width="37.4" height="6.21" style="fill: #564c43"/>
    <g style="isolation: isolate">
      <g style="clip-path: url(#clip-path-25)">
        <g style="isolation: isolate">
          <path d="M84.71,86.55v6.22h-.13V86.55h.13" style="fill: #51493f"/>
          <path d="M84.58,86.55v6.22l-1,0V86.53l1,0" style="fill: #4f473e"/>
          <path d="M83.58,86.53v6.22l-.94,0V86.48l.94,0" style="fill: #4d453c"/>
          <path d="M82.64,86.48V92.7l-.91-.08V86.41l.91.07" style="fill: #4b433a"/>
          <path d="M81.73,86.41v6.21l-.89-.1V86.3l.89.11" style="fill: #484138"/>
          <path d="M80.84,86.3v6.22L80,92.38V86.17l.89.13" style="fill: #463f37"/>
          <path d="M80,86.17v6.21L79,92.21V86l.92.17" style="fill: #443d35"/>
          <path d="M79,86v6.21c-.32-.06-.63-.14-.94-.21V85.78L79,86" style="fill: #423b33"/>
          <path d="M78.09,85.78V92c-.35-.09-.69-.18-1-.29V85.5c.33.1.67.2,1,.28" style="fill: #3f3931"/>
          <path d="M77.07,85.5v6.21q-.63-.19-1.2-.42V85.08q.57.23,1.2.42" style="fill: #3d3730"/>
          <path d="M75.87,85.08v6.21c-2.56-1-4.16-2.43-4.16-4V81.06c0,1.59,1.6,3,4.16,4" style="fill: #3b352e"/>
        </g>
      </g>
    </g>
    <g style="isolation: isolate">
      <g style="clip-path: url(#clip-path-26)">
        <g style="isolation: isolate">
          <path d="M84.71,83.44v3.11h-.36l.11-3.11h.25" style="fill: #63594d"/>
          <path d="M84.46,83.44l-.11,3.11c-.62,0-1.22,0-1.81-.07l.67-3.1c.41,0,.83.05,1.25.06" style="fill: #61574c"/>
          <path d="M83.21,83.38l-.67,3.1c-.53,0-1.05-.09-1.56-.16l1.15-3c.35,0,.71.08,1.08.1" style="fill: #5f554a"/>
          <path d="M82.13,83.28l-1.15,3c-.48-.06-1-.13-1.41-.22l1.58-3c.32.05.65.11,1,.15" style="fill: #5d5348"/>
          <path d="M81.15,83.13l-1.58,3c-.45-.08-.88-.17-1.3-.27l2-2.89.9.19" style="fill: #5a5146"/>
          <path d="M80.25,82.94l-2,2.89c-.41-.1-.82-.21-1.2-.33l2.35-2.79.83.23" style="fill: #584f45"/>
          <path d="M79.42,82.71,77.07,85.5c-.39-.12-.76-.25-1.11-.38l2.69-2.68c.25.1.51.19.77.27" style="fill: #564d43"/>
          <path d="M78.65,82.44,76,85.12c-.36-.14-.7-.29-1-.44l3-2.54a7.37,7.37,0,0,0,.7.3" style="fill: #544b41"/>
          <path d="M78,82.14l-3,2.54a10,10,0,0,1-.92-.5l3.29-2.38c.2.11.41.23.64.34" style="fill: #51493f"/>
          <path d="M77.31,81.8,74,84.18a8.59,8.59,0,0,1-.8-.55l3.53-2.22c.17.13.36.26.56.39" style="fill: #4f473e"/>
          <path d="M76.75,81.41l-3.53,2.22a6,6,0,0,1-.68-.64l3.74-2a5,5,0,0,0,.47.44" style="fill: #4d453c"/>
          <path d="M76.28,81l-3.74,2a3.39,3.39,0,0,1-.51-.72l3.9-1.8a2.67,2.67,0,0,0,.35.5" style="fill: #4b433a"/>
          <path d="M75.93,80.47,72,82.27a2.4,2.4,0,0,1-.29-.84l4-1.54a1.82,1.82,0,0,0,.2.58" style="fill: #484138"/>
          <path d="M75.73,79.89l-4,1.54a2.31,2.31,0,0,1,0-.37l4-1.43a1.14,1.14,0,0,0,0,.26" style="fill: #463f37"/>
        </g>
      </g>
    </g>
  </g>
  <g style="isolation: isolate">
    <polygon points="97.25 99.47 93.25 99.21 113.56 99.21 109.56 99.47 97.25 99.47" style="fill: #423b33"/>
    <rect x="97.25" y="99.47" width="12.31" height="59.84" style="fill: #595045"/>
    <polygon points="97.25 159.31 93.25 162.43 93.25 99.21 97.25 99.47 97.25 159.31" style="fill: #4c443b"/>
    <polygon points="109.56 159.31 113.56 162.43 93.25 162.43 97.25 159.31 109.56 159.31" style="fill: #665b50"/>
    <rect x="93.25" y="162.43" width="20.31" height="6.21" style="fill: #564c43"/>
    <polygon points="109.56 99.47 113.56 99.21 113.56 162.43 109.56 159.31 109.56 99.47" style="fill: #61574c"/>
  </g>
  <g style="isolation: isolate">
    <ellipse cx="103.41" cy="55.52" rx="18.47" ry="7.8" style="fill: #484137"/>
    <g style="isolation: isolate">
      <g style="clip-path: url(#clip-path-27)">
        <g style="isolation: isolate">
          <path d="M125.88,56.94v0" style="fill: #353029"/>
          <path d="M125.88,57v6.21a4.53,4.53,0,0,1-.09.74V57.78a4.67,4.67,0,0,0,.09-.74" style="fill: #37312a"/>
          <path d="M125.79,57.78V64a5.45,5.45,0,0,1-.2.69V58.47a6,6,0,0,0,.2-.69" style="fill: #38332b"/>
          <path d="M125.59,58.47v6.21a4.56,4.56,0,0,1-.32.67V59.14a4.56,4.56,0,0,0,.32-.67" style="fill: #3a342d"/>
          <path d="M125.27,59.14v6.21a5.12,5.12,0,0,1-.42.65V59.79a5.12,5.12,0,0,0,.42-.65" style="fill: #3c362e"/>
          <path d="M124.85,59.79V66c-.17.22-.35.44-.55.66V60.44a8.24,8.24,0,0,0,.55-.65" style="fill: #3e3830"/>
          <path d="M124.3,60.44v6.22a9,9,0,0,1-.7.66V61.11a7.49,7.49,0,0,0,.7-.67" style="fill: #403931"/>
          <path d="M123.6,61.11v6.21a9,9,0,0,1-.88.69V61.8c.32-.23.61-.46.88-.69" style="fill: #423b32"/>
          <path d="M122.72,61.8V68c-.36.26-.75.5-1.16.74V62.54c.41-.24.8-.49,1.16-.74" style="fill: #433d34"/>
          <path d="M121.56,62.54v6.21c-.53.31-1.11.6-1.72.88V63.42c.61-.28,1.19-.57,1.72-.88" style="fill: #453e35"/>
          <path d="M119.84,63.42v6.21a28.07,28.07,0,0,1-4.36,1.53V65a29.15,29.15,0,0,0,4.36-1.53" style="fill: #474037"/>
          <path d="M115.48,65v6.21l-.66.18V65.12l.66-.17" style="fill: #494238"/>
          <path d="M114.82,65.12v6.22a42.14,42.14,0,0,1-5.28,1V66.08a44,44,0,0,0,5.28-1" style="fill: #474037"/>
          <path d="M109.54,66.08v6.21c-.82.1-1.66.18-2.51.24V66.31c.85-.06,1.69-.13,2.51-.23" style="fill: #453e35"/>
          <path d="M107,66.31v6.22c-.66,0-1.34.08-2,.1V66.41c.68,0,1.36,0,2-.1" style="fill: #433d34"/>
          <path d="M105,66.41v6.22l-1.6,0h-.24V66.44h.24c.54,0,1.07,0,1.6,0" style="fill: #423b32"/>
          <path d="M103.17,66.44v6.21c-.58,0-1.16,0-1.73,0V66.4l1.73,0" style="fill: #403931"/>
          <path d="M101.44,66.4v6.21l-1.63-.08V66.31c.54,0,1.08.07,1.63.09" style="fill: #3e3830"/>
          <path d="M99.81,66.31v6.22l-1.57-.13V66.18c.52.06,1,.1,1.57.13" style="fill: #3c362e"/>
          <path d="M98.24,66.18V72.4l-1.55-.18V66c.51.07,1,.13,1.55.18" style="fill: #3a342d"/>
          <path d="M96.69,66v6.22L95.15,72V65.77c.51.09,1,.17,1.54.23" style="fill: #38332b"/>
          <path d="M95.15,65.77V72c-.53-.09-1.06-.19-1.57-.3V65.48c.51.11,1,.2,1.57.29" style="fill: #37312a"/>
          <path d="M93.58,65.48v6.21c-.56-.11-1.11-.24-1.64-.37V65.11c.53.13,1.08.26,1.64.37" style="fill: #353029"/>
          <path d="M91.94,65.11v6.21c-.6-.15-1.18-.31-1.75-.49V64.62c.57.17,1.15.34,1.75.49" style="fill: #332e27"/>
          <path d="M90.19,64.62v6.21c-.72-.22-1.42-.46-2.07-.72V63.9c.65.26,1.35.5,2.07.72" style="fill: #312c26"/>
          <path d="M88.12,63.9v6.21c-4.42-1.73-7.18-4.21-7.18-7V56.94c0,2.75,2.76,5.22,7.18,7" style="fill: #2f2b24"/>
        </g>
      </g>
    </g>
    <g style="isolation: isolate">
      <g style="clip-path: url(#clip-path-28)">
        <g style="isolation: isolate">
          <path d="M103.41,47.71v-.26c.73,0,1.46,0,2.17,0l-.38.26c-.59,0-1.19,0-1.79,0" style="fill: #353029"/>
          <path d="M105.2,47.75l.38-.26A50.07,50.07,0,0,1,111,48l-1.35.16a40.72,40.72,0,0,0-4.42-.41" style="fill: #37312a"/>
          <path d="M109.62,48.16,111,48c1.32.2,2.59.45,3.78.74l-2,0c-1-.25-2-.45-3.11-.62" style="fill: #38332b"/>
          <path d="M112.73,48.78l2,0c1,.25,2,.54,2.89.85l-2.53-.11a24.73,24.73,0,0,0-2.38-.7" style="fill: #3a342d"/>
          <path d="M115.11,49.48l2.53.11a24.06,24.06,0,0,1,2.28.91L117,50.22c-.58-.27-1.21-.51-1.87-.74" style="fill: #3c362e"/>
          <path d="M117,50.22l2.94.28a19,19,0,0,1,1.8.94L118.46,51a15.75,15.75,0,0,0-1.48-.77" style="fill: #3e3830"/>
          <path d="M118.46,51l3.26.45a12.82,12.82,0,0,1,1.41,1l-3.51-.61a10.23,10.23,0,0,0-1.16-.79" style="fill: #403931"/>
          <path d="M119.62,51.78l3.51.61a10.56,10.56,0,0,1,1.1,1l-3.71-.79a7.06,7.06,0,0,0-.9-.79" style="fill: #423b32"/>
          <path d="M120.52,52.57l3.71.79a8.07,8.07,0,0,1,.8,1l-3.85-1a7.83,7.83,0,0,0-.66-.81" style="fill: #433d34"/>
          <path d="M121.18,53.38l3.85,1a4.89,4.89,0,0,1,.53,1l-3.94-1.15a4.43,4.43,0,0,0-.44-.83" style="fill: #453e35"/>
          <path d="M121.62,54.21l3.94,1.15a4.34,4.34,0,0,1,.28,1l-4-1.33a3.78,3.78,0,0,0-.23-.86" style="fill: #474037"/>
          <path d="M121.85,55.07l4,1.33a4.9,4.9,0,0,1,0,.54,5.09,5.09,0,0,1,0,.55l-4-1.52a3.39,3.39,0,0,0,0-.9" style="fill: #494238"/>
          <path d="M121.85,56l4,1.52a4.56,4.56,0,0,1-.31,1.12l-3.94-1.72a3.84,3.84,0,0,0,.26-.92" style="fill: #4b4339"/>
          <path d="M121.59,56.89l3.94,1.72a5.89,5.89,0,0,1-.68,1.18L121,57.86a4.58,4.58,0,0,0,.56-1" style="fill: #4c453b"/>
          <path d="M121,57.86l3.82,1.93a9,9,0,0,1-1.21,1.29L120,58.91a6.88,6.88,0,0,0,1-1" style="fill: #4e473c"/>
          <path d="M120,58.91l3.6,2.17a13.16,13.16,0,0,1-2.12,1.48l-3.23-2.42A10.4,10.4,0,0,0,120,58.91" style="fill: #50483e"/>
          <path d="M118.29,60.14l3.23,2.42c-3.48,2-8.75,3.4-14.82,3.78l-.59-3.1c5-.31,9.33-1.46,12.18-3.1" style="fill: #524a3f"/>
          <path d="M106.11,63.24l.59,3.1c-1.08.06-2.17.1-3.29.1h-.63l.11-3.11h.52c.92,0,1.82,0,2.7-.08" style="fill: #50483e"/>
          <path d="M102.89,63.32l-.11,3.11c-1.07,0-2.12-.05-3.14-.13l.67-3.09c.84.06,1.7.1,2.58.11" style="fill: #4e473c"/>
          <path d="M100.31,63.21l-.67,3.09c-.92-.06-1.83-.15-2.7-.26L98.09,63c.72.09,1.46.17,2.22.22" style="fill: #4c453b"/>
          <path d="M98.09,63,96.94,66c-.84-.11-1.66-.24-2.45-.38l1.59-3c.65.12,1.32.22,2,.31" style="fill: #4b4339"/>
          <path d="M96.08,62.68l-1.59,3c-.77-.14-1.51-.3-2.24-.48l2-2.89c.59.15,1.21.28,1.84.39" style="fill: #494238"/>
          <path d="M94.24,62.29l-2,2.89c-.71-.17-1.4-.36-2.06-.56l2.35-2.79c.55.16,1.11.32,1.7.46" style="fill: #474037"/>
          <path d="M92.54,61.83l-2.35,2.79q-1-.32-1.92-.66L91,61.28c.5.2,1,.38,1.57.55" style="fill: #453e35"/>
          <path d="M91,61.28,88.27,64c-.61-.24-1.2-.49-1.75-.76l3-2.54c.45.22.93.43,1.44.62" style="fill: #433d34"/>
          <path d="M89.53,60.66l-3,2.54c-.56-.27-1.09-.55-1.58-.85L88.23,60a13.25,13.25,0,0,0,1.3.7" style="fill: #423b32"/>
          <path d="M88.23,60l-3.29,2.39a15.37,15.37,0,0,1-1.39-1l3.54-2.22a9.14,9.14,0,0,0,1.14.79" style="fill: #403931"/>
          <path d="M87.09,59.17l-3.54,2.22a9.4,9.4,0,0,1-1.16-1.09l3.74-2a8.34,8.34,0,0,0,1,.9" style="fill: #3e3830"/>
          <path d="M86.13,58.27l-3.74,2a6.38,6.38,0,0,1-.89-1.25l3.9-1.8a5.2,5.2,0,0,0,.73,1" style="fill: #3c362e"/>
          <path d="M85.4,57.25l-3.9,1.8A4.6,4.6,0,0,1,81,57.58L85,56a3.87,3.87,0,0,0,.42,1.21" style="fill: #3a342d"/>
          <path d="M85,56l-4,1.54a4.48,4.48,0,0,1,0-.64,4.11,4.11,0,0,1,.17-1.15l4-1.22a3.41,3.41,0,0,0-.14,1A3,3,0,0,0,85,56" style="fill: #38332b"/>
          <path d="M85.08,54.57l-4,1.22a5.74,5.74,0,0,1,1.33-2.27l3.74-.82a4.66,4.66,0,0,0-1.1,1.87" style="fill: #37312a"/>
          <path d="M86.18,52.7l-3.74.82a16.81,16.81,0,0,1,7-4l2.49-.1a13.81,13.81,0,0,0-5.72,3.29" style="fill: #353029"/>
          <path d="M91.9,49.41l-2.49.1A35.82,35.82,0,0,1,94,48.32l1.68.11a32.24,32.24,0,0,0-3.74,1" style="fill: #332e27"/>
          <path d="M95.64,48.43,94,48.32a49.72,49.72,0,0,1,9.45-.87v.26a40.9,40.9,0,0,0-7.77.72" style="fill: #353029"/>
        </g>
      </g>
    </g>
  </g>
  <g style="isolation: isolate">
    <rect x="98.01" y="161.99" width="10.84" height="0.27" style="fill: #423b33"/>
    <g style="isolation: isolate">
      <g style="clip-path: url(#clip-path-29)">
        <g style="isolation: isolate">
          <path d="M108.85,162.26V162h.61l-.39.26h-.22" style="fill: #423b33"/>
          <path d="M109.07,162.26l.39-.26a14.15,14.15,0,0,1,1.5.14l-1.35.17-.54-.05" style="fill: #443d35"/>
          <path d="M109.61,162.31l1.35-.17q.56.09,1.05.21l-2,0-.38-.08" style="fill: #463f37"/>
          <path d="M110,162.39l2,0c.28.07.55.15.8.24l-2.53-.12-.29-.08" style="fill: #484138"/>
          <path d="M110.28,162.47l2.53.12c.23.08.44.16.64.25l-2.94-.28-.23-.09" style="fill: #4b433a"/>
          <path d="M110.51,162.56l2.94.28c.18.08.34.17.5.26l-3.26-.44-.18-.1" style="fill: #4d453c"/>
          <path d="M110.69,162.66l3.26.44a3.83,3.83,0,0,1,.39.27l-3.51-.62-.14-.09" style="fill: #4f473e"/>
          <path d="M110.83,162.75l3.51.62a1.93,1.93,0,0,1,.3.27l-3.7-.79-.11-.1" style="fill: #51493f"/>
          <path d="M110.94,162.85l3.7.79a2.76,2.76,0,0,1,.23.27L111,163a.39.39,0,0,0-.08-.1" style="fill: #544b41"/>
          <path d="M111,163l3.85,1a1.91,1.91,0,0,1,.15.28l-4-1.14a.31.31,0,0,0,0-.1" style="fill: #564d43"/>
          <path d="M111.07,163.05l4,1.14a1.53,1.53,0,0,1,.07.29l-4-1.33a.19.19,0,0,0,0-.1" style="fill: #584f45"/>
          <path d="M111.1,163.15l4,1.33a.76.76,0,0,1,0,.15l-4-1.42v-.06" style="fill: #5a5146"/>
        </g>
      </g>
    </g>
    <g style="isolation: isolate">
      <g style="clip-path: url(#clip-path-30)">
        <g style="isolation: isolate">
          <path d="M95.71,163.22l-4,1.43a1.13,1.13,0,0,1,.05-.32l4-1.22a.36.36,0,0,0,0,.11" style="fill: #463f37"/>
          <path d="M95.73,163.11l-4,1.22a1.62,1.62,0,0,1,.37-.64l3.74-.81a.51.51,0,0,0-.14.23" style="fill: #443d35"/>
          <path d="M95.87,162.88l-3.74.81a4.75,4.75,0,0,1,2-1.12l2.49-.1a1.5,1.5,0,0,0-.71.41" style="fill: #423b33"/>
          <path d="M96.58,162.47l-2.49.1a9.59,9.59,0,0,1,1.26-.33l1.69.11a2.8,2.8,0,0,0-.46.12" style="fill: #3f3931"/>
          <path d="M97,162.35l-1.69-.11A13.82,13.82,0,0,1,98,162v.27a4.85,4.85,0,0,0-1,.09" style="fill: #423b33"/>
        </g>
      </g>
    </g>
    <path d="M108.85,162.26c1.25,0,2.25.42,2.25,1v13.36H95.71V163.22c0-.53,1-1,2.3-1Z" style="fill: #595045"/>
    <polygon points="95.71 176.56 91.71 179.68 91.71 164.65 95.71 163.22 95.71 176.56" style="fill: #4c443b"/>
    <polygon points="111.1 176.56 115.1 179.68 91.71 179.68 95.71 176.56 111.1 176.56" style="fill: #665b50"/>
    <rect x="91.71" y="179.68" width="23.39" height="6.21" style="fill: #564c43"/>
    <polygon points="111.1 163.21 115.1 164.63 115.1 179.68 111.1 176.56 111.1 163.21" style="fill: #61574c"/>
  </g>
</svg>
